<?xml version="1.0" encoding="UTF-8"?>
<svg id="Layer_2" data-name="Layer 2" xmlns="http://www.w3.org/2000/svg" viewBox="0 0 250 51.15">
  <defs>
    <style>
      .cls-1 {
        fill: none;
      }

      .cls-2 {
        fill: #4b2a6f;
      }
    </style>
  </defs>
  <g id="Map">
    <g>
      <path class="cls-2" d="M66.87,42.53l-1.37-7.39h-7.89l-1.37,7.39h-9.42L55.7,4.6h11.47l9.02,37.92h-9.32ZM64.15,27.38l-1.47-8.48c-.17-.95-.32-1.88-.46-2.78-.14-.9-.27-1.76-.37-2.58-.11-.82-.2-1.59-.29-2.3-.07.67-.15,1.42-.26,2.23-.11.81-.24,1.66-.39,2.55-.15.89-.31,1.81-.47,2.76l-1.55,8.59h5.27Z"/>
      <path class="cls-2" d="M92.65,12.62c.33,0,.67.02,1.02.05.35.03.78.12,1.3.26l-.67,9.26c-.33-.12-.71-.21-1.12-.26-.42-.05-.89-.08-1.42-.08-.82,0-1.52.13-2.11.39-.59.26-1.07.64-1.45,1.13-.37.49-.65,1.11-.84,1.84-.18.74-.27,1.59-.27,2.56v14.76h-8.29V13.14h6.34l1.2,4.7h.4c.33-.8.78-1.6,1.35-2.4.57-.8,1.24-1.47,2.01-2.01.77-.54,1.63-.8,2.56-.8Z"/>
      <path class="cls-2" d="M108.94,35.63c.52,0,1.08-.09,1.69-.27.61-.18,1.25-.43,1.94-.74v6.8c-.92.54-1.88.94-2.89,1.22-1.01.28-2.09.42-3.26.42-1.85,0-3.35-.37-4.5-1.1-1.15-.73-1.99-1.86-2.52-3.37-.53-1.51-.8-3.42-.8-5.72v-12.63h-2.87v-4.57l3.6-2.23,1.95-6.17h5.62v5.89h5.32v7.08h-5.32v12.53c0,.95.17,1.67.5,2.15.33.48.85.73,1.55.73Z"/>
      <path class="cls-2" d="M132.52,33.5c0,2.11-.38,3.87-1.15,5.29-.77,1.42-1.87,2.48-3.31,3.19-1.44.71-3.18,1.06-5.21,1.06-1.38,0-2.74-.12-4.07-.36-1.33-.24-2.66-.67-3.97-1.27v-8.12c1.03.64,2.17,1.2,3.41,1.67,1.24.48,2.49.71,3.76.71.77,0,1.34-.13,1.72-.4.38-.27.57-.7.57-1.31,0-.33-.08-.64-.24-.95-.16-.3-.54-.67-1.14-1.1-.6-.43-1.56-.99-2.87-1.66-1.15-.6-2.12-1.34-2.9-2.22-.78-.87-1.37-1.87-1.77-3-.4-1.12-.6-2.38-.6-3.76,0-2.73.8-4.86,2.4-6.38,1.6-1.52,3.87-2.28,6.82-2.28,1.47,0,2.85.21,4.15.64,1.3.42,2.62,1.04,3.97,1.85l-2.02,6.54c-.85-.59-1.75-1.1-2.7-1.53-.95-.43-1.92-.65-2.9-.65-.58,0-1.02.11-1.3.34-.28.22-.42.57-.42,1.04,0,.31.08.6.24.86.16.26.52.58,1.09.97.57.39,1.45.96,2.65,1.7,1.15.66,2.16,1.41,3.02,2.26.87.85,1.54,1.83,2.04,2.94.49,1.12.74,2.43.74,3.93Z"/>
      <path class="cls-2" d="M145.46,42.53h-8.69V4.6h17.49v7.65h-8.79v8.12h8.14v7.65h-8.14v14.5Z"/>
      <path class="cls-2" d="M168.64,12.67c2.25,0,4.17.52,5.77,1.56s2.82,2.55,3.66,4.54c.84,1.99,1.26,4.42,1.26,7.29v4.51h-13.51c0,1.97.4,3.4,1.19,4.29.79.89,2,1.34,3.63,1.34,1.3,0,2.51-.17,3.62-.52,1.12-.35,2.32-.93,3.62-1.76v7.03c-1.22.74-2.52,1.28-3.92,1.61-1.4.33-2.91.49-4.55.49-2.73,0-4.96-.57-6.68-1.72-1.72-1.15-2.99-2.85-3.81-5.1-.82-2.25-1.22-5-1.22-8.25s.41-6.07,1.24-8.34c.82-2.27,2.05-4,3.67-5.19,1.62-1.18,3.63-1.78,6.03-1.78ZM168.84,19.31c-.87,0-1.59.39-2.16,1.17-.57.78-.86,2.13-.86,4.05h5.85c0-1.24-.12-2.25-.35-3.02-.23-.77-.56-1.33-.99-1.67-.42-.35-.92-.52-1.49-.52Z"/>
      <path class="cls-2" d="M199.74,33.5c0,2.11-.38,3.87-1.15,5.29-.77,1.42-1.87,2.48-3.31,3.19-1.44.71-3.18,1.06-5.21,1.06-1.38,0-2.74-.12-4.07-.36-1.33-.24-2.66-.67-3.97-1.27v-8.12c1.03.64,2.17,1.2,3.41,1.67,1.24.48,2.49.71,3.76.71.77,0,1.34-.13,1.72-.4.38-.27.57-.7.57-1.31,0-.33-.08-.64-.24-.95-.16-.3-.54-.67-1.14-1.1-.6-.43-1.56-.99-2.87-1.66-1.15-.6-2.12-1.34-2.9-2.22-.78-.87-1.37-1.87-1.77-3-.4-1.12-.6-2.38-.6-3.76,0-2.73.8-4.86,2.4-6.38,1.6-1.52,3.87-2.28,6.82-2.28,1.47,0,2.85.21,4.15.64,1.3.42,2.62,1.04,3.97,1.85l-2.02,6.54c-.85-.59-1.75-1.1-2.7-1.53-.95-.43-1.92-.65-2.9-.65-.58,0-1.02.11-1.3.34-.28.22-.42.57-.42,1.04,0,.31.08.6.24.86.16.26.52.58,1.09.97.57.39,1.45.96,2.65,1.7,1.15.66,2.16,1.41,3.02,2.26.87.85,1.54,1.83,2.04,2.94.49,1.12.74,2.43.74,3.93Z"/>
      <path class="cls-2" d="M214.53,35.63c.52,0,1.08-.09,1.69-.27.61-.18,1.25-.43,1.94-.74v6.8c-.92.54-1.88.94-2.89,1.22-1.01.28-2.09.42-3.26.42-1.85,0-3.35-.37-4.5-1.1-1.15-.73-1.99-1.86-2.52-3.37-.53-1.51-.8-3.42-.8-5.72v-12.63h-2.87v-4.57l3.6-2.23,1.95-6.17h5.62v5.89h5.32v7.08h-5.32v12.53c0,.95.17,1.67.5,2.15.33.48.85.73,1.55.73Z"/>
      <g>
        <path class="cls-2" d="M19.97,7.74l-4.35,20.54c-1.07,4.83-1.4,6.01-2.08,7.25-.51.85-1.35,1.35-2.3,1.35-1.57,0-2.59-.95-2.59-2.47,0-.67.28-2.59.67-4.27L14.62,5.17H5.68L.67,28.73c-.45,2.3-.67,4.05-.67,5.73,0,2.58.62,4.61,1.85,5.95,1.85,2.02,5.34,3.2,9.56,3.2s7.2-1.18,9.16-3.71c1.29-1.63,2.47-4.89,3.32-8.77l4.09-19.31-8.01-4.09Z"/>
        <path class="cls-2" d="M37.57,6.64c-1.4-.81-4.22-1.4-6.97-1.46h0s-12.94,0-12.94,0c0,0,12.32,5.8,14.35,7.59l.05.04c.48.53.68,1.31.68,2.42,0,3.09-2.14,13.72-3.49,17.2-.99,2.59-2.26,3.39-5.42,3.43-.6,1.79-1.38,3.58-2.33,4.78-.62.79-1.31,1.46-2.09,2.02h5.35c3.31,0,5.4-.34,7.14-1.07,3.37-1.52,5.45-5,7.2-11.86,1.07-4.38,2.36-12.7,2.36-15.46,0-3.26-1.51-6.24-3.87-7.64"/>
      </g>
      <g>
        <rect class="cls-1" x="221.29" y="3.75" width="28.71" height="40.71"/>
        <path class="cls-2" d="M235.62,22.48h-10.91v-3.12l3.55-4.74c.79-1.06,1.37-1.92,1.76-2.59.39-.67.65-1.23.77-1.69.13-.46.19-.89.19-1.31,0-.53-.12-.95-.36-1.25-.24-.3-.61-.45-1.11-.45-.44,0-.88.14-1.31.43s-.94.82-1.52,1.59l-2.13-2.86c.56-.73,1.13-1.32,1.69-1.76.56-.44,1.15-.76,1.77-.95.62-.19,1.29-.29,2.02-.29,1.02,0,1.94.22,2.74.65.8.44,1.43,1.05,1.9,1.83.46.79.69,1.71.69,2.77,0,.73-.09,1.44-.26,2.13-.18.7-.5,1.45-.96,2.25-.47.81-1.14,1.74-2.03,2.8l-2.15,2.6v.13h5.66v3.83Z"/>
        <path class="cls-2" d="M249.08,13.14c0,1.35-.08,2.61-.25,3.77-.17,1.17-.46,2.18-.87,3.05-.41.87-.98,1.55-1.7,2.04-.72.49-1.64.73-2.76.73-1.23,0-2.26-.36-3.08-1.08-.82-.72-1.44-1.79-1.86-3.21-.41-1.42-.62-3.19-.62-5.31s.2-4.04.6-5.47,1.01-2.48,1.84-3.16c.82-.68,1.86-1.02,3.12-1.02s2.27.36,3.09,1.08c.82.72,1.44,1.8,1.86,3.23s.63,3.21.63,5.35ZM242.32,13.14c0,1.33.03,2.42.09,3.27s.17,1.47.34,1.87.42.6.75.6.6-.2.77-.6.29-1.02.35-1.87c.06-.85.09-1.93.09-3.27s-.03-2.38-.09-3.23c-.06-.86-.18-1.5-.35-1.93-.17-.43-.43-.64-.77-.64-.32,0-.56.21-.73.64-.17.43-.29,1.07-.35,1.93-.06.86-.1,1.94-.1,3.23Z"/>
        <path class="cls-2" d="M235.62,44.01h-10.91v-3.12l3.55-4.74c.79-1.06,1.37-1.92,1.76-2.59.39-.67.65-1.23.77-1.69.13-.46.19-.89.19-1.31,0-.53-.12-.95-.36-1.25-.24-.3-.61-.45-1.11-.45-.44,0-.88.14-1.31.43s-.94.82-1.52,1.59l-2.13-2.86c.56-.73,1.13-1.32,1.69-1.76.56-.44,1.15-.76,1.77-.95.62-.19,1.29-.29,2.02-.29,1.02,0,1.94.22,2.74.65.8.44,1.43,1.05,1.9,1.83.46.79.69,1.71.69,2.77,0,.73-.09,1.44-.26,2.13-.18.7-.5,1.45-.96,2.25-.47.81-1.14,1.74-2.03,2.8l-2.15,2.6v.13h5.66v3.83Z"/>
        <path class="cls-2" d="M237.86,36.1c0-1.13.07-2.23.21-3.31.14-1.08.37-2.09.71-3.02.34-.94.8-1.76,1.39-2.47.59-.71,1.33-1.27,2.22-1.67s1.97-.6,3.23-.6c.44,0,.89.02,1.34.06s.89.09,1.34.16v3.69c-.36-.08-.73-.13-1.1-.17-.38-.04-.76-.06-1.15-.06-.9,0-1.65.17-2.25.52s-1.06.89-1.36,1.62c-.31.73-.48,1.69-.51,2.87h.1c.21-.49.45-.89.73-1.21.28-.32.61-.56.99-.72.38-.16.79-.24,1.25-.24.87,0,1.62.24,2.25.72.63.48,1.11,1.18,1.44,2.08.33.91.5,2,.5,3.28,0,1.36-.22,2.53-.65,3.53-.43.99-1.05,1.77-1.87,2.31s-1.8.82-2.96.82c-.9,0-1.72-.18-2.44-.55-.72-.37-1.34-.9-1.84-1.61-.51-.7-.89-1.56-1.16-2.57s-.4-2.16-.4-3.44ZM243.6,40.5c.37,0,.67-.23.9-.68.23-.45.35-1.17.35-2.14,0-.83-.1-1.45-.29-1.86-.2-.41-.51-.62-.94-.62-.26,0-.48.1-.69.29-.2.2-.36.46-.47.79s-.17.7-.17,1.11c0,.44.03.85.09,1.23.06.38.15.7.26.99.12.28.25.5.41.65.16.15.34.23.54.23Z"/>
      </g>
    </g>
  </g>
</svg>