<?xml version="1.0" encoding="UTF-8"?>
<svg id="Layer_2" data-name="Layer 2" xmlns="http://www.w3.org/2000/svg" viewBox="0 0 41.45 38.44">
  <defs>
    <style>
      .cls-1 {
        fill: #4b2a6f;
      }
    </style>
  </defs>
  <g id="Map">
    <g>
      <path class="cls-1" d="M19.97,2.56l-4.35,20.54c-1.07,4.83-1.4,6.01-2.08,7.25-.51.85-1.35,1.35-2.3,1.35-1.57,0-2.59-.95-2.59-2.47,0-.67.28-2.59.67-4.27L14.62,0H5.68L.67,23.55c-.45,2.3-.67,4.05-.67,5.73,0,2.58.62,4.61,1.85,5.95,1.85,2.02,5.34,3.2,9.56,3.2s7.2-1.18,9.16-3.71c1.29-1.63,2.47-4.89,3.32-8.77l4.09-19.31-8.01-4.09Z"/>
      <path class="cls-1" d="M37.57,1.46C36.18.66,33.35.06,30.61,0h0s-12.94,0-12.94,0c0,0,12.32,5.8,14.35,7.59l.05.04c.48.53.68,1.31.68,2.42,0,3.09-2.14,13.72-3.49,17.2-.99,2.59-2.26,3.39-5.42,3.43-.6,1.79-1.38,3.58-2.33,4.78-.62.79-1.31,1.46-2.09,2.02h5.35c3.31,0,5.4-.34,7.14-1.07,3.37-1.52,5.45-5,7.2-11.86,1.07-4.38,2.36-12.7,2.36-15.46,0-3.26-1.51-6.24-3.87-7.64"/>
    </g>
  </g>
</svg>